Inception (2010) DVDRip XviD-MAX
Format                           : AVI
Format/Info                      : Audio Video Interleave
Format profile                   : OpenDML
File size                        : 1.43 GiB
Duration                         : 2h 28mn
Overall bit rate                 : 1 381 Kbps
Writing application              : AVI-Mux GUI 1.17.8.3, Feb 16 201019:42:50

Video
ID                               : 0
Format                           : MPEG-4 Visual
Format profile                   : AdvancedSimple@L5
Format settings, BVOP            : Yes
Format settings, QPel            : No
Format settings, GMC             : No warppoints
Format settings, Matrix          : Default (H.263)
Muxing mode                      : Packed bitstream
Codec ID                         : XVID
Codec ID/Hint                    : XviD
Duration                         : 2h 28mn
Bit rate                         : 1 185 Kbps
Width                            : 640 pixels
Height                           : 272 pixels
Display aspect ratio             : 2.35:1
Frame rate                       : 23.976 fps
Resolution                       : 24 bits
Colorimetry                      : 4:2:0
Scan type                        : Progressive
Bits/(Pixel*Frame)               : 0.284
Stream size                      : 1.23 GiB (86%)
Writing library                  : XviD 57

Audio
ID                               : 1
Format                           : MPEG Audio
Format version                   : Version 1
Format profile                   : Layer 3
Codec ID                         : 55
Codec ID/Hint                    : MP3
Duration                         : 2h 28mn
Bit rate mode                    : Constant
Bit rate                         : 192 Kbps
Channel(s)                       : 2 channels
Sampling rate                    : 48.0 KHz
Resolution                       : 16 bits
Stream size                      : 203 MiB (14%)
Alignment                        : Aligned on interleaves
Interleave, duration             : 628 ms (15.07 video frames)
Interleave, preload duration     : 216 ms
Title                            : inception
Writing library                  : LAME3.98.2

Sources: Original DVD+MP3 audio (perfect sync with additional 100% volume) sample included,enjoy
 
http://www.imdb.com/title/tt1375666/

Screens:
 
http://www.postimg.com/image/24000/23266.jpg
 
http://www.postimg.com/image/24000/23267.jpg
 
http://www.postimg.com/image/24000/23268.jpg
 
http://www.postimg.com/image/24000/23269.jpg

ScreenCaps:
 
http://www.postimg.com/image/24000/23270.jpg

Inception (2010) DVDRip XviD-MAX Torrent Free Download
 
http://thepiratebay.org/user/extremezone/0/7

How To Get Your Maxspeed (uTorrent)

Torrent Client - Preferences - Bandwidth - Number of connections - Set aprox. 500 for each 
Torrent Client - Preferences - BiTorrent - Protocol Encryption - Forced
Bandwidth Allocation - High (Set download/upload limit - Unlimited)
Stop Other Active Torrents - Start downloading and wait for connections.
Enjoy and Seed for at least 1:1 ratio. Don't forget to say thanks/leave reviews.
Greets to all actual/future p2p/scene QUALITY groups and affiliate websites.
Don't trust IMDb robot or bad ratings,always watch some trailers first.
Ignore stupid comments/fake/mislabeled/no-DVDrips/CAM/TS/RAR uploads.
Please spread this release/torrent to your friends/forums/etc.
If you need translation subs visit some subtitles sites.
Report if you see online streaming or other spam links.
Recommended movie player VLC PLAYER.